<svg id="Layer_1" data-name="Layer 1" xmlns="http://www.w3.org/2000/svg" viewBox="0 0 84.81 127.51"><defs><style>.cls-1{fill:#3f59a6;}</style></defs><title>logo3</title><path class="cls-1" d="M91.23,82.52a2,2,0,0,0-2.79.23L74.75,98.81,66,91.88A2,2,0,1,0,63.54,95l10.25,8.12a2,2,0,0,0,2.74-.27L91.46,85.29A2,2,0,0,0,91.23,82.52ZM77.36,115.7a2,2,0,0,0-2,2,5.93,5.93,0,0,1-5.93,5.91H17a5.93,5.93,0,0,1-5.93-5.91V9.84A5.93,5.93,0,0,1,17,3.94H69.45a5.93,5.93,0,0,1,5.93,5.91V70.1a2,2,0,0,0,4,0V36.49A3.29,3.29,0,0,0,82,33.27V24.66a3.29,3.29,0,0,0-2.64-3.22V9.84A9.87,9.87,0,0,0,69.45,0H17A9.87,9.87,0,0,0,7.12,9.84V117.67A9.87,9.87,0,0,0,17,127.51H69.45a9.89,9.89,0,0,0,9.8-8.57,1.94,1.94,0,0,0,.08-0.56v-0.71A2,2,0,0,0,77.36,115.7ZM53.11,10a2,2,0,1,0,0-3.94H33.34a2,2,0,1,0,0,3.94H53.11ZM37.73,116.77a5.5,5.5,0,1,0,5.5-5.47A5.49,5.49,0,0,0,37.73,116.77Zm7,0a1.54,1.54,0,1,1-1.54-1.53A1.54,1.54,0,0,1,44.77,116.77ZM66.85,71.94A2.18,2.18,0,0,0,69,69.77V25.71c0-3.67-3.54-6.88-7.57-6.88H25.72a7.56,7.56,0,0,0-7.57,7.54V99.84a7.56,7.56,0,0,0,7.57,7.54H56.9a2.17,2.17,0,1,0,0-4.34H25.72a3.2,3.2,0,0,1-3.21-3.19V26.36a3.2,3.2,0,0,1,3.21-3.19H61.46a3.17,3.17,0,0,1,3.21,2.54V69.77A2.17,2.17,0,0,0,66.85,71.94Z" transform="translate(-7.12)"/></svg>